o Extruded.001
v 17.279422760009766 -3.9200000762939453 0.7999999523162842
v 17.279422760009766 -10.933759689331055 0.7999999523162842
v 60.44999694824219 -5.5 0.7999999523162842
v 60.44999694824219 -3.9200000762939453 0.7999999523162842
v 60.44999694824219 -5.5 0
v 10 -11.850000381469727 0
v 14.73541259765625 -11.25396728515625 1.038867473602295
v 12.2803316116333 -11.562980651855469 1.7471201419830322
v 10 -11.850000381469727 2.8999998569488525
v 60.44999694824219 -3.9200000762939453 0.8426137566566467
v 59.2926139831543 -3.9200000762939453 2
v 11.679423332214355 -3.9200000762939453 2
v 14.415858268737793 -3.9200000762939453 1.1033669710159302
v 59.2926139831543 -3.0799999237060547 2
v 11.679423332214355 -3.0799999237060547 2
v 60.44999694824219 -3.0799999237060547 0.8426137566566467
v 17.279422760009766 -3.0799999237060547 0.7999999523162842
v 14.415858268737793 -3.0799999237060547 1.1033669710159302
v 12.2803316116333 -3.0799999237060547 1.7471201419830322
v 60.44999694824219 -3.0799999237060547 0.7999999523162842
v 60.44999694824219 -1.5 0
v 60.44999694824219 -1.5 0.7999999523162842
v 58.150001525878906 -1.5 0
v 58.150001525878906 -1.5 0.7999999523162842
v 57.76176834106445 1.4488887786865234 0
v 58.150001525878906 1.5 0
v 58.150001525878906 1.5 0.7999999523162842
v 57.39999771118164 1.299038052558899 0
v 57.76176834106445 1.4488887786865234 0.7999999523162842
v 57.08934020996094 1.0606601238250732 0
v 57.39999771118164 1.299038052558899 0.7999999523162842
v 56.8509635925293 0.75 0
v 57.08934020996094 1.0606601238250732 0.7999999523162842
v 56.70111083984375 0.38822856545448303 0
v 56.8509635925293 0.75 0.7999999523162842
v 56.650001525878906 -8.010748982999725e-16 0
v 56.70111083984375 0.38822856545448303 0.7999999523162842
v 56.70111083984375 -0.38822856545448303 0
v 56.650001525878906 -8.010748982999725e-16 0.7999999523162842
v 56.8509635925293 -0.75 0
v 56.70111083984375 -0.38822856545448303 0.7999999523162842
v 57.08934020996094 -1.0606601238250732 0
v 56.8509635925293 -0.75 0.7999999523162842
v 57.39999771118164 -1.299038052558899 0
v 57.08934020996094 -1.0606601238250732 0.7999999523162842
v 57.76176834106445 -1.4488887786865234 0
v 57.39999771118164 -1.299038052558899 0.7999999523162842
v 57.76176834106445 -1.4488887786865234 0.7999999523162842
v 60.44999694824219 1.5 0
v 60.44999694824219 1.5 0.7999999523162842
v 60.44999694824219 3.0799999237060547 0.7999999523162842
v 17.279422760009766 3.0799999237060547 0.7999999523162842
v 60.44999694824219 3.0799999237060547 0.8426137566566467
v 59.2926139831543 3.0799999237060547 2
v 11.679423332214355 3.0799999237060547 2
v 12.2803316116333 3.0799999237060547 1.7471201419830322
v 14.73541259765625 3.0799999237060547 1.038867473602295
v 59.2926139831543 3.9200000762939453 2
v 11.679423332214355 3.9200000762939453 2
v 60.44999694824219 3.9200000762939453 0.8426137566566467
v 17.279422760009766 3.9200000762939453 0.7999999523162842
v 14.73541259765625 3.9200000762939453 1.038867473602295
v 12.2803316116333 3.9200000762939453 1.7471201419830322
v 60.44999694824219 3.9200000762939453 0.7999999523162842
v 60.44999694824219 5.5 0
v 60.44999694824219 5.5 0.7999999523162842
v 17.279422760009766 10.933759689331055 0.7999999523162842
v 14.73541259765625 11.25396728515625 1.038867473602295
v 12.2803316116333 11.562980651855469 1.7471201419830322
v 10 11.850000381469727 2.8999998569488525
v 10 11.850000381469727 0
v -9 11.850000381469727 0
v -9 -11.850000381469727 0
v -9 -11.850000381469727 2.8999998569488525
v -9 11.850000381469727 2.8999998569488525
v 9 -10.300000190734863 2.8999998569488525
v 9 10.300000190734863 2.8999998569488525
v -9 10.300000190734863 2.8999998569488525
v -9 -10.300000190734863 2.8999998569488525
v 9 -10.300000190734863 2.0999999046325684
v -9 -10.300000190734863 2.0999999046325684
v 9 -11 1.7000000476837158
v -9 -11 1.7000000476837158
v 9 -11 0.7999999523162842
v -9 -11 0.7999999523162842
v 9 11 0.7999999523162842
v -9 11 0.7999999523162842
v -9 11 1.7000000476837158
v -9 10.300000190734863 2.0999999046325684
v 9 10.300000190734863 2.0999999046325684
v 9 11 1.7000000476837158
vn 0 0 1
vn 0 0 1
vn 0 0 1
vn 0 0 1
vn 0.12488185614347458 -0.9921716451644897 0
vn 0.12488185614347458 -0.9921716451644897 0
vn 0.12488185614347458 -0.9921716451644897 0
vn 0.12488185614347458 -0.9921716451644897 0
vn 0.12488185614347458 -0.9921716451644897 0
vn 0.12488185614347458 -0.9921716451644897 0
vn 0.12488185614347458 -0.9921716451644897 0
vn 3.9643210936191053e-10 -1 2.700953811244489e-16
vn 3.9643210936191053e-10 -1 2.700953811244489e-16
vn 3.9643210936191053e-10 -1 2.700953811244489e-16
vn 3.9643210936191053e-10 -1 2.700953811244489e-16
vn 3.9643210936191053e-10 -1 2.700953811244489e-16
vn 3.9643210936191053e-10 -1 2.700953811244489e-16
vn 3.2235939846518284e-18 2.700953811244489e-16 1
vn 3.2235939846518284e-18 2.700953811244489e-16 1
vn 3.2235939846518284e-18 2.700953811244489e-16 1
vn 3.2235939846518284e-18 2.700953811244489e-16 1
vn 0.7071067690849304 2.8032001719857647e-10 0.7071067690849304
vn 0.7071067690849304 2.8032001719857647e-10 0.7071067690849304
vn 0.7071067690849304 2.8032001719857647e-10 0.7071067690849304
vn 0.7071067690849304 2.8032001719857647e-10 0.7071067690849304
vn -3.9643210936191053e-10 1 -2.700953811244489e-16
vn -3.9643210936191053e-10 1 -2.700953811244489e-16
vn -3.9643210936191053e-10 1 -2.700953811244489e-16
vn -3.9643210936191053e-10 1 -2.700953811244489e-16
vn -3.9643210936191053e-10 1 -2.700953811244489e-16
vn -3.9643210936191053e-10 1 -2.700953811244489e-16
vn -3.9643210936191053e-10 1 -2.700953811244489e-16
vn 1 0 0
vn 1 0 0
vn 1 0 0
vn 1 0 0
vn 1 0 0
vn 1 0 0
vn 1 0 0
vn 1 0 0
vn 0 1 0
vn 0 1 0
vn 0 1 0
vn 0 1 0
vn 0.258819043636322 -0.9659258127212524 0
vn 3.0616169991140216e-16 -1 0
vn 3.0616169991140216e-16 -1 0
vn 0.5 -0.8660253882408142 0
vn 0.258819043636322 -0.9659258127212524 0
vn 0.7071067690849304 -0.7071067690849304 0
vn 0.5 -0.8660253882408142 0
vn 0.8660253882408142 -0.5 0
vn 0.7071067690849304 -0.7071067690849304 0
vn 0.9659258127212524 -0.258819043636322 0
vn 0.8660253882408142 -0.5 0
vn 1 2.4492937051703357e-16 0
vn 0.9659258127212524 -0.258819043636322 0
vn 0.9659258127212524 0.258819043636322 0
vn 1 2.4492937051703357e-16 0
vn 0.8660253882408142 0.5 0
vn 0.9659258127212524 0.258819043636322 0
vn 0.7071067690849304 0.7071067690849304 0
vn 0.8660253882408142 0.5 0
vn 0.5 0.8660253882408142 0
vn 0.7071067690849304 0.7071067690849304 0
vn 0.258819043636322 0.9659258127212524 0
vn 0.5 0.8660253882408142 0
vn -1.8369701465288538e-16 1 0
vn 0.258819043636322 0.9659258127212524 0
vn -1.8369701465288538e-16 1 0
vn 0 -1 0
vn 0 -1 0
vn 0 -1 0
vn 0 -1 0
vn 0 0 1
vn 0 0 1
vn 0 0 1
vn 0 0 1
vn 0 0 1
vn 0 0 1
vn 0 0 1
vn 0 0 1
vn 0 0 1
vn 0 0 1
vn 0 0 1
vn 0 0 1
vn 0 0 1
vn 0 0 1
vn 0 0 1
vn 0 0 1
vn 0 0 1
vn 0 0 1
vn 0 0 1
vn 0 -1 0
vn 0 -1 0
vn 0 -1 0
vn 0 -1 0
vn 0 -1 0
vn 0 -1 0
vn 0 -1 0
vn 0 0 1
vn 0 0 1
vn 0 0 1
vn 0 0 1
vn 0.7071067690849304 1.84907808546316e-16 0.7071067690849304
vn 0.7071067690849304 1.84907808546316e-16 0.7071067690849304
vn 0.7071067690849304 1.84907808546316e-16 0.7071067690849304
vn 0.7071067690849304 1.84907808546316e-16 0.7071067690849304
vn 8.596251177191951e-18 1 -2.700953811244489e-16
vn 8.596251177191951e-18 1 -2.700953811244489e-16
vn 8.596251177191951e-18 1 -2.700953811244489e-16
vn 8.596251177191951e-18 1 -2.700953811244489e-16
vn 8.596251177191951e-18 1 -2.700953811244489e-16
vn 8.596251177191951e-18 1 -2.700953811244489e-16
vn 8.596251177191951e-18 1 -2.700953811244489e-16
vn 1 0 0
vn 1 0 0
vn 1 0 0
vn 1 0 0
vn 1 0 0
vn 1 0 0
vn 1 0 0
vn 1 0 0
vn 0 0 1
vn 0 0 1
vn 0 0 1
vn 0 0 1
vn 0 0 1
vn 0 0 1
vn 0.18614710867404938 0 0.9825218915939331
vn 0.36578720808029175 0 0.9306985139846802
vn 0.36578720808029175 0 0.9306985139846802
vn 0.2095291167497635 0 0.9778023958206177
vn 0.18614710867404938 0 0.9825218915939331
vn -1.2246468525851679e-16 0 1
vn -1.2246468525851679e-16 0 1
vn 0.36578720808029175 0 0.9306985139846802
vn 0.18614710867404938 0 0.9825218915939331
vn 0.2095291167497635 0 0.9778023958206177
vn 0.18614710867404938 0 0.9825218915939331
vn -1.2246468525851679e-16 0 1
vn 0.4097561538219452 0 0.912195086479187
vn 0.36578720808029175 0 0.9306985139846802
vn 0.36578720808029175 0 0.9306985139846802
vn 0.5326407551765442 0 0.8463414311408997
vn 0.4097561538219452 0 0.912195086479187
vn 0.4097561538219452 0 0.912195086479187
vn 0.4097561538219452 0 0.912195086479187
vn 0.5326407551765442 0 0.8463414311408997
vn 0 0 1
vn 0.12488185614347458 0.9921716451644897 0
vn 0.12488185614347458 0.9921716451644897 0
vn 0.12488185614347458 0.9921716451644897 0
vn 0.12488185614347458 0.9921716451644897 0
vn 0.12488185614347458 0.9921716451644897 0
vn 0.12488185614347458 0.9921716451644897 0
vn 0.12488185614347458 0.9921716451644897 0
vn 0 0 -1
vn 0 0 -1
vn 0 0 -1
vn 0 0 -1
vn 0 0 -1
vn 0 0 -1
vn 0 0 -1
vn 0 0 -1
vn 0 0 -1
vn 0 0 -1
vn 0 0 -1
vn 0 0 -1
vn 0 0 -1
vn 0 0 -1
vn 0 0 -1
vn 0 0 -1
vn 0 0 -1
vn 0 0 -1
vn 0 0 -1
vn 0 0 -1
vn 0 0 -1
vn 0 -1 2.2568957298552377e-16
vn 0 -1 2.2568957298552377e-16
vn 0 -1 2.2568957298552377e-16
vn 0 -1 2.2568957298552377e-16
vn 0 1 -2.2568957298552377e-16
vn 0 1 -2.2568957298552377e-16
vn 0 1 -2.2568957298552377e-16
vn 0 1 -2.2568957298552377e-16
vn 0 0 1
vn 0 0 1
vn 0 0 1
vn 0 0 1
vn 0 0 1
vn 0 0 1
vn 0 0 1
vn 0 0 1
vn 0 1 -2.2568957298552377e-16
vn 0 1 -2.2568957298552377e-16
vn 0 1 -2.2568957298552377e-16
vn 0 1 -2.2568957298552377e-16
vn -9.550725952466274e-17 0.49613893032073975 -0.8682431578636169
vn -9.550725952466274e-17 0.49613893032073975 -0.8682431578636169
vn -9.550725952466274e-17 0.49613893032073975 -0.8682431578636169
vn -9.550725952466274e-17 0.49613893032073975 -0.8682431578636169
vn 0 1 -2.2568957298552377e-16
vn 0 1 -2.2568957298552377e-16
vn 0 1 -2.2568957298552377e-16
vn 0 1 -2.2568957298552377e-16
vn 0 0 1
vn 0 0 1
vn 0 0 1
vn 0 0 1
vn -1 0 0
vn -1 0 0
vn -1 0 0
vn -1 0 0
vn -1 0 0
vn -1 0 0
vn -1 0 0
vn -1 0 0
vn -1 0 0
vn -1 0 0
vn -1 0 0
vn -1 0 0
vn -1 0 0
vn -1 0 0
vn -1 0 0
vn -1 0 0
vn -1 0 0
vn -1 0 0
vn -1 0 0
vn -1 0 0
vn 0 -1 2.2568957298552377e-16
vn 0 -1 2.2568957298552377e-16
vn 0 -1 2.2568957298552377e-16
vn 0 -1 2.2568957298552377e-16
vn 0 -1 2.2568957298552377e-16
vn 0 -1 2.2568957298552377e-16
vn 0 -1 2.2568957298552377e-16
vn 0 -1 2.2568957298552377e-16
vn -9.550725952466274e-17 -0.49613893032073975 -0.8682431578636169
vn -9.550725952466274e-17 -0.49613893032073975 -0.8682431578636169
vn -9.550725952466274e-17 -0.49613893032073975 -0.8682431578636169
vn -9.550725952466274e-17 -0.49613893032073975 -0.8682431578636169
f 1//1 2//2 3//3
f 3//3 4//4 1//1
f 5//5 3//6 2//7
f 2//7 6//8 5//5
f 2//7 7//9 6//8
f 7//9 8//10 6//8
f 8//10 9//11 6//8
f 1//12 4//13 10//14
f 11//15 12//16 1//12
f 12//16 13//17 1//12
f 10//14 11//15 1//12
f 12//18 11//19 14//20
f 14//20 15//21 12//18
f 14//22 11//23 10//24
f 10//24 16//25 14//22
f 17//26 14//27 16//28
f 17//26 18//29 19//30
f 16//28 20//31 17//26
f 17//26 15//32 14//27
f 19//30 15//32 17//26
f 5//33 20//34 4//35
f 10//36 4//35 20//34
f 20//34 16//37 10//36
f 21//38 22//39 20//34
f 20//34 5//33 21//38
f 4//35 3//40 5//33
f 22//41 21//42 23//43
f 23//43 24//44 22//41
f 25//45 26//46 27//47
f 28//48 25//45 29//49
f 30//50 28//48 31//51
f 32//52 30//50 33//53
f 34//54 32//52 35//55
f 36//56 34//54 37//57
f 38//58 36//56 39//59
f 40//60 38//58 41//61
f 42//62 40//60 43//63
f 44//64 42//62 45//65
f 46//66 44//64 47//67
f 23//68 46//66 48//69
f 48//69 24//70 23//68
f 47//67 48//69 46//66
f 45//65 47//67 44//64
f 43//63 45//65 42//62
f 41//61 43//63 40//60
f 39//59 41//61 38//58
f 37//57 39//59 36//56
f 35//55 37//57 34//54
f 33//53 35//55 32//52
f 31//51 33//53 30//50
f 29//49 31//51 28//48
f 27//47 29//49 25//45
f 27//71 26//72 49//73
f 49//73 50//74 27//71
f 51//75 52//76 29//77
f 17//78 41//79 39//80
f 20//81 24//82 48//83
f 29//77 27//84 51//75
f 52//76 33//85 31//86
f 52//76 39//80 37//87
f 17//78 43//88 41//79
f 17//78 48//83 47//89
f 20//81 22//90 24//82
f 31//86 29//77 52//76
f 37//87 35//91 52//76
f 17//78 45//92 43//88
f 48//83 17//78 20//81
f 35//91 33//85 52//76
f 47//89 45//92 17//78
f 39//80 52//76 17//78
f 27//84 50//93 51//75
f 52//94 51//95 53//96
f 54//97 55//98 52//94
f 52//94 55//98 56//99
f 56//99 57//100 52//94
f 53//96 54//97 52//94
f 58//101 59//102 55//103
f 55//103 54//104 58//101
f 60//105 58//106 54//107
f 54//107 53//108 60//105
f 61//109 58//110 60//111
f 61//109 62//112 63//113
f 60//111 64//114 61//109
f 61//109 59//115 58//110
f 63//113 59//115 61//109
f 49//116 64//117 51//118
f 51//118 64//117 60//119
f 60//119 53//120 51//118
f 65//121 66//122 64//117
f 64//117 49//116 65//121
f 51//118 50//123 49//116
f 61//124 64//125 66//126
f 66//126 67//127 61//124
f 17//128 52//129 57//130
f 56//131 19//132 18//133
f 62//134 61//135 67//136
f 63//137 62//134 68//138
f 13//139 7//140 2//141
f 12//142 8//143 7//140
f 69//144 70//145 59//146
f 70//145 15//147 55//148
f 55//148 59//146 70//145
f 56//131 55//148 15//147
f 15//147 19//132 56//131
f 9//149 12//142 15//147
f 9//149 8//143 12//142
f 15//147 70//145 9//149
f 59//146 63//137 69//144
f 7//140 13//139 12//142
f 2//141 1//150 13//139
f 68//138 69//144 63//137
f 67//136 68//138 62//134
f 18//133 57//130 56//131
f 57//130 18//133 17//128
f 65//151 71//152 67//153
f 71//152 68//154 67//153
f 71//152 69//155 68//154
f 71//152 70//156 69//155
f 67//153 66//157 65//151
f 36//158 38//159 6//160
f 6//160 44//161 46//162
f 6//160 72//163 36//158
f 36//158 72//163 71//164
f 71//164 65//165 25//166
f 5//167 46//162 23//168
f 6//160 42//169 44//161
f 6//160 73//170 72//163
f 71//164 32//171 34//172
f 25//166 28//173 71//164
f 65//165 49//174 26//175
f 46//162 5//167 6//160
f 38//159 40//176 6//160
f 71//164 30//177 32//171
f 26//175 25//166 65//165
f 40//176 42//169 6//160
f 28//173 30//177 71//164
f 71//164 34//172 36//158
f 23//168 21//178 5//167
f 74//179 73//180 6//181
f 6//181 9//182 74//179
f 70//183 71//184 72//185
f 72//185 75//186 70//183
f 74//187 9//188 76//189
f 9//188 70//190 77//191
f 77//191 76//189 9//188
f 75//192 78//193 77//191
f 77//191 70//190 75//192
f 76//189 79//194 74//187
f 79//195 76//196 80//197
f 80//197 81//198 79//195
f 81//199 80//200 82//201
f 82//201 83//202 81//199
f 83//203 82//204 84//205
f 84//205 85//206 83//203
f 85//207 84//208 86//209
f 86//209 87//210 85//207
f 73//211 74//212 83//213
f 74//212 79//214 81//215
f 75//216 88//217 89//218
f 72//219 87//220 88//217
f 72//219 73//211 85//221
f 81//215 83//213 74//212
f 88//217 75//216 72//219
f 83//213 85//221 73//211
f 85//221 87//220 72//219
f 89//218 78//222 75//216
f 76//223 77//224 90//225
f 84//226 82//227 80//228
f 86//229 84//226 90//225
f 80//228 90//225 84//226
f 90//225 80//228 76//223
f 90//225 91//230 86//229
f 91//231 88//232 87//233
f 87//233 86//234 91//231
f 89//235 90//236 77//237
f 77//237 78//238 89//235
f 91//239 90//240 89//241
f 89//241 88//242 91//239
