o Extruded.001
v 57.979042053222656 -5.811012268066406 0.7999999523162842
v 59.237178802490234 -5.328607559204102 0.7999999523162842
v 59.743995666503906 -4.877289295196533 0.7999999523162842
v 58.63731002807617 -5.645959854125977 0.7999999523162842
v 60.12849044799805 -4.318075656890869 0.7999999523162842
v 17.279422760009766 -3.9200000762939453 0.7999999523162842
v 17.279422760009766 -10.933759689331055 0.7999999523162842
v 60.29918670654297 -3.9200000762939453 0.7999999523162842
v 57.979042053222656 -5.811012268066406 0
v 10 -11.850000381469727 0
v 14.73541259765625 -11.25396728515625 1.038867473602295
v 12.2803316116333 -11.562980651855469 1.7471201419830322
v 10 -11.850000381469727 2.8999998569488525
v 60.29918670654297 -3.9200000762939453 0.993427574634552
v 59.2926139831543 -3.9200000762939453 2
v 11.679423332214355 -3.9200000762939453 2
v 14.415858268737793 -3.9200000762939453 1.1033669710159302
v 59.2926139831543 -3.0799999237060547 2
v 11.679423332214355 -3.0799999237060547 2
v 60.368446350097656 -3.683272123336792 0.92416912317276
v 60.42508316040039 -3.3838162422180176 0.8675284385681152
v 60.449119567871094 -3.0799999237060547 0.8434928059577942
v 17.279422760009766 -3.0799999237060547 0.7999999523162842
v 14.415858268737793 -3.0799999237060547 1.1033669710159302
v 12.2803316116333 -3.0799999237060547 1.7471201419830322
v 60.449119567871094 -3.0799999237060547 0.7999999523162842
v 60.12849044799805 -4.318075656890869 0
v 59.743995666503906 -4.877289295196533 0
v 59.237178802490234 -5.328607559204102 0
v 58.63731002807617 -5.645959854125977 0
v 60.368446350097656 -3.683272123336792 0
v 60.44999694824219 -3.0095489025115967 0
v 60.44999694824219 -3.0095489025115967 0.7999999523162842
v 60.44999694824219 -1.5 0
v 60.44999694824219 -1.5 0.7999999523162842
v 58.150001525878906 -1.5 0
v 58.150001525878906 -1.5 0.7999999523162842
v 57.76176834106445 1.4488887786865234 0
v 58.150001525878906 1.5 0
v 58.150001525878906 1.5 0.7999999523162842
v 57.39999771118164 1.299038052558899 0
v 57.76176834106445 1.4488887786865234 0.7999999523162842
v 57.08934020996094 1.0606601238250732 0
v 57.39999771118164 1.299038052558899 0.7999999523162842
v 56.8509635925293 0.75 0
v 57.08934020996094 1.0606601238250732 0.7999999523162842
v 56.70111083984375 0.38822856545448303 0
v 56.8509635925293 0.75 0.7999999523162842
v 56.650001525878906 -8.010748982999725e-16 0
v 56.70111083984375 0.38822856545448303 0.7999999523162842
v 56.70111083984375 -0.38822856545448303 0
v 56.650001525878906 -8.010748982999725e-16 0.7999999523162842
v 56.8509635925293 -0.75 0
v 56.70111083984375 -0.38822856545448303 0.7999999523162842
v 57.08934020996094 -1.0606601238250732 0
v 56.8509635925293 -0.75 0.7999999523162842
v 57.39999771118164 -1.299038052558899 0
v 57.08934020996094 -1.0606601238250732 0.7999999523162842
v 57.76176834106445 -1.4488887786865234 0
v 57.39999771118164 -1.299038052558899 0.7999999523162842
v 57.76176834106445 -1.4488887786865234 0.7999999523162842
v 60.44999694824219 1.5 0
v 60.44999694824219 1.5 0.7999999523162842
v 60.44999694824219 3.0095489025115967 0
v 60.44999694824219 3.0095489025115967 0.7999999523162842
v 60.449119567871094 3.0799999237060547 0.7999999523162842
v 17.279422760009766 3.0799999237060547 0.7999999523162842
v 60.449119567871094 3.0799999237060547 0.8434928059577942
v 59.2926139831543 3.0799999237060547 2
v 11.679423332214355 3.0799999237060547 2
v 12.2803316116333 3.0799999237060547 1.7471201419830322
v 14.73541259765625 3.0799999237060547 1.038867473602295
v 59.2926139831543 3.9200000762939453 2
v 11.679423332214355 3.9200000762939453 2
v 60.367774963378906 3.685997247695923 0.9248401522636414
v 60.29918670654297 3.9200000762939453 0.993427574634552
v 60.42508316040039 3.3838162422180176 0.8675284385681152
v 17.279422760009766 3.9200000762939453 0.7999999523162842
v 14.73541259765625 3.9200000762939453 1.038867473602295
v 12.2803316116333 3.9200000762939453 1.7471201419830322
v 60.29918670654297 3.9200000762939453 0.7999999523162842
v 57.979042053222656 5.811012268066406 0
v 57.979042053222656 5.811012268066406 0.7999999523162842
v 58.63731002807617 5.645959854125977 0.7999999523162842
v 58.63731002807617 5.645959854125977 0
v 59.237178802490234 5.328607559204102 0.7999999523162842
v 59.237178802490234 5.328607559204102 0
v 59.743995666503906 4.877289295196533 0.7999999523162842
v 59.743995666503906 4.877289295196533 0
v 60.12849044799805 4.318075656890869 0.7999999523162842
v 60.368446350097656 3.683272123336792 0
v 60.12849044799805 4.318075656890869 0
v 17.279422760009766 10.933759689331055 0.7999999523162842
v 14.73541259765625 11.25396728515625 1.038867473602295
v 12.2803316116333 11.562980651855469 1.7471201419830322
v 10 11.850000381469727 2.8999998569488525
v 10 11.850000381469727 0
v -9 11.850000381469727 0
v -9 -11.850000381469727 0
v -9 -11.850000381469727 2.8999998569488525
v -9 11.850000381469727 2.8999998569488525
v 9 -10.300000190734863 2.8999998569488525
v 9 10.300000190734863 2.8999998569488525
v -9 10.300000190734863 2.8999998569488525
v -9 -10.300000190734863 2.8999998569488525
v 9 -10.300000190734863 2.0999999046325684
v -9 -10.300000190734863 2.0999999046325684
v 9 -11 1.7000000476837158
v -9 -11 1.7000000476837158
v 9 -11 0.7999999523162842
v -9 -11 0.7999999523162842
v 9 11 0.7999999523162842
v -9 11 0.7999999523162842
v -9 11 1.7000000476837158
v -9 10.300000190734863 2.0999999046325684
v 9 10.300000190734863 2.0999999046325684
v 9 11 1.7000000476837158
vn 0 0 1
vn 0 0 1
vn 0 0 1
vn 0 0 1
vn 0 0 1
vn 0 0 1
vn 0 0 1
vn 0 0 1
vn 0.12488185614347458 -0.9921716451644897 0
vn 0.12488185614347458 -0.9921716451644897 0
vn 0.12488185614347458 -0.9921716451644897 0
vn 0.12488185614347458 -0.9921716451644897 0
vn 0.12488185614347458 -0.9921716451644897 0
vn 0.12488185614347458 -0.9921716451644897 0
vn 0.12488185614347458 -0.9921716451644897 0
vn 3.9643210936191053e-10 -1 2.700953811244489e-16
vn 3.9643210936191053e-10 -1 2.700953811244489e-16
vn 3.9643210936191053e-10 -1 2.700953811244489e-16
vn 3.9643210936191053e-10 -1 2.700953811244489e-16
vn 3.9643210936191053e-10 -1 2.700953811244489e-16
vn 3.9643210936191053e-10 -1 2.700953811244489e-16
vn 3.2235939846518284e-18 2.700953811244489e-16 1
vn 3.2235939846518284e-18 2.700953811244489e-16 1
vn 3.2235939846518284e-18 2.700953811244489e-16 1
vn 3.2235939846518284e-18 2.700953811244489e-16 1
vn 0.7071067690849304 2.8032001719857647e-10 0.7071067690849304
vn 0.7071067690849304 2.8032001719857647e-10 0.7071067690849304
vn 0.7071067690849304 2.8032001719857647e-10 0.7071067690849304
vn 0.7071067690849304 2.8032001719857647e-10 0.7071067690849304
vn 0.7071067690849304 2.8032001719857647e-10 0.7071067690849304
vn 0.7071067690849304 2.8032001719857647e-10 0.7071067690849304
vn -3.9643210936191053e-10 1 -2.700953811244489e-16
vn -3.9643210936191053e-10 1 -2.700953811244489e-16
vn -3.9643210936191053e-10 1 -2.700953811244489e-16
vn -3.9643210936191053e-10 1 -2.700953811244489e-16
vn -3.9643210936191053e-10 1 -2.700953811244489e-16
vn -3.9643210936191053e-10 1 -2.700953811244489e-16
vn -3.9643210936191053e-10 1 -2.700953811244489e-16
vn 0.8861333131790161 -0.4634304344654083 0
vn 0.8861333131790161 -0.4634304344654083 0
vn 0.7499606013298035 -0.6614824533462524 0
vn 0.7499606013298035 -0.6614824533462524 0
vn 0.5704644918441772 -0.8213222622871399 0
vn 0.5704644918441772 -0.8213222622871399 0
vn 0.35801398754119873 -0.9337162375450134 0
vn 0.35801398754119873 -0.9337162375450134 0
vn 0.12488185614347458 -0.9921716451644897 0
vn 0.9911761283874512 -0.13255122303962708 0
vn 0.9711161851882935 -0.23860709369182587 0
vn 0.9996886849403381 -0.024951087310910225 0
vn 0.9996886849403381 -0.024951087310910225 0
vn 1 1.2246468525851679e-16 0
vn 1 1.2246468525851679e-16 0
vn 0.9465875029563904 -0.32244712114334106 0
vn 0.9711161851882935 -0.23860709369182587 0
vn 0.9465875029563904 -0.32244712114334106 0
vn 0.12488185614347458 -0.9921716451644897 0
vn 1 0 0
vn 1 0 0
vn 1 0 0
vn 1 0 0
vn 0 1 0
vn 0 1 0
vn 0 1 0
vn 0 1 0
vn 0.258819043636322 -0.9659258127212524 0
vn 3.0616169991140216e-16 -1 0
vn 3.0616169991140216e-16 -1 0
vn 0.5 -0.8660253882408142 0
vn 0.258819043636322 -0.9659258127212524 0
vn 0.7071067690849304 -0.7071067690849304 0
vn 0.5 -0.8660253882408142 0
vn 0.8660253882408142 -0.5 0
vn 0.7071067690849304 -0.7071067690849304 0
vn 0.9659258127212524 -0.258819043636322 0
vn 0.8660253882408142 -0.5 0
vn 1 2.4492937051703357e-16 0
vn 0.9659258127212524 -0.258819043636322 0
vn 0.9659258127212524 0.258819043636322 0
vn 1 2.4492937051703357e-16 0
vn 0.8660253882408142 0.5 0
vn 0.9659258127212524 0.258819043636322 0
vn 0.7071067690849304 0.7071067690849304 0
vn 0.8660253882408142 0.5 0
vn 0.5 0.8660253882408142 0
vn 0.7071067690849304 0.7071067690849304 0
vn 0.258819043636322 0.9659258127212524 0
vn 0.5 0.8660253882408142 0
vn -1.8369701465288538e-16 1 0
vn 0.258819043636322 0.9659258127212524 0
vn -1.8369701465288538e-16 1 0
vn 0 -1 0
vn 0 -1 0
vn 0 -1 0
vn 0 -1 0
vn 1 0 0
vn 1 0 0
vn 1 0 0
vn 1 0 0
vn 0 0 1
vn 0 0 1
vn 0 0 1
vn 0 0 1
vn 0 0 1
vn 0 0 1
vn 0 0 1
vn 0 0 1
vn 0 0 1
vn 0 0 1
vn 0 0 1
vn 0 0 1
vn 0 0 1
vn 0 0 1
vn 0 0 1
vn 0 0 1
vn 0 0 1
vn 0 0 1
vn 0 0 1
vn 0 0 1
vn 0 0 1
vn -8.596251177191951e-18 -1 2.700953811244489e-16
vn -8.596251177191951e-18 -1 2.700953811244489e-16
vn -8.596251177191951e-18 -1 2.700953811244489e-16
vn -8.596251177191951e-18 -1 2.700953811244489e-16
vn -8.596251177191951e-18 -1 2.700953811244489e-16
vn -8.596251177191951e-18 -1 2.700953811244489e-16
vn -8.596251177191951e-18 -1 2.700953811244489e-16
vn 0 0 1
vn 0 0 1
vn 0 0 1
vn 0 0 1
vn 0.7071067690849304 1.84907808546316e-16 0.7071067690849304
vn 0.7071067690849304 1.84907808546316e-16 0.7071067690849304
vn 0.7071067690849304 1.84907808546316e-16 0.7071067690849304
vn 0.7071067690849304 1.84907808546316e-16 0.7071067690849304
vn 0.7071067690849304 1.84907808546316e-16 0.7071067690849304
vn 0.7071067690849304 1.84907808546316e-16 0.7071067690849304
vn 8.596251177191951e-18 1 -2.700953811244489e-16
vn 8.596251177191951e-18 1 -2.700953811244489e-16
vn 8.596251177191951e-18 1 -2.700953811244489e-16
vn 8.596251177191951e-18 1 -2.700953811244489e-16
vn 8.596251177191951e-18 1 -2.700953811244489e-16
vn 8.596251177191951e-18 1 -2.700953811244489e-16
vn 8.596251177191951e-18 1 -2.700953811244489e-16
vn 0.12488185614347458 0.9921716451644897 0
vn 0.12488185614347458 0.9921716451644897 0
vn 0.35801398754119873 0.9337162375450134 0
vn 0.35801398754119873 0.9337162375450134 0
vn 0.5704644918441772 0.8213222622871399 0
vn 0.5704644918441772 0.8213222622871399 0
vn 0.7499606013298035 0.6614824533462524 0
vn 0.7499606013298035 0.6614824533462524 0
vn 0.8861333131790161 0.4634304344654083 0
vn 0.970878541469574 0.23957227170467377 0
vn 0.9711161851882935 0.23860709369182587 0
vn 0.9465875029563904 0.32244712114334106 0
vn 0.8861333131790161 0.4634304344654083 0
vn 1 1.2246468525851679e-16 0
vn 0.9996886849403381 0.024951087310910225 0
vn 0.9911761283874512 0.13255122303962708 0
vn 0.9996886849403381 0.024951087310910225 0
vn 1 1.2246468525851679e-16 0
vn 0.9465875029563904 0.32244712114334106 0
vn 0 0 1
vn 0 0 1
vn 0 0 1
vn 0 0 1
vn 0 0 1
vn 0 0 1
vn 0 0 1
vn 0 0 1
vn 0 0 1
vn 0 0 1
vn 0.18614710867404938 0 0.9825218915939331
vn 0.36578720808029175 0 0.9306985139846802
vn 0.36578720808029175 0 0.9306985139846802
vn 0.2095291167497635 0 0.9778023958206177
vn 0.18614710867404938 0 0.9825218915939331
vn -1.2246468525851679e-16 0 1
vn -1.2246468525851679e-16 0 1
vn 0.36578720808029175 0 0.9306985139846802
vn 0.18614710867404938 0 0.9825218915939331
vn 0.2095291167497635 0 0.9778023958206177
vn 0.18614710867404938 0 0.9825218915939331
vn -1.2246468525851679e-16 0 1
vn 0.4097561538219452 0 0.912195086479187
vn 0.36578720808029175 0 0.9306985139846802
vn 0.36578720808029175 0 0.9306985139846802
vn 0.5326407551765442 0 0.8463414311408997
vn 0.4097561538219452 0 0.912195086479187
vn 0.4097561538219452 0 0.912195086479187
vn 0.4097561538219452 0 0.912195086479187
vn 0.5326407551765442 0 0.8463414311408997
vn 0 0 1
vn 0.12488185614347458 0.9921716451644897 0
vn 0.12488185614347458 0.9921716451644897 0
vn 0.12488185614347458 0.9921716451644897 0
vn 0.12488185614347458 0.9921716451644897 0
vn 0.12488185614347458 0.9921716451644897 0
vn 0.12488185614347458 0.9921716451644897 0
vn 0.12488185614347458 0.9921716451644897 0
vn 0 0 -1
vn 0 0 -1
vn 0 0 -1
vn 0 0 -1
vn 0 0 -1
vn 0 0 -1
vn 0 0 -1
vn 0 0 -1
vn 0 0 -1
vn 0 0 -1
vn 0 0 -1
vn 0 0 -1
vn 0 0 -1
vn 0 0 -1
vn 0 0 -1
vn 0 0 -1
vn 0 0 -1
vn 0 0 -1
vn 0 0 -1
vn 0 0 -1
vn 0 0 -1
vn 0 0 -1
vn 0 0 -1
vn 0 0 -1
vn 0 0 -1
vn 0 0 -1
vn 0 0 -1
vn 0 0 -1
vn 0 0 -1
vn 0 0 -1
vn 0 0 -1
vn 0 0 -1
vn 0 0 -1
vn 0 -1 2.2568957298552377e-16
vn 0 -1 2.2568957298552377e-16
vn 0 -1 2.2568957298552377e-16
vn 0 -1 2.2568957298552377e-16
vn 0 1 -2.2568957298552377e-16
vn 0 1 -2.2568957298552377e-16
vn 0 1 -2.2568957298552377e-16
vn 0 1 -2.2568957298552377e-16
vn 0 0 1
vn 0 0 1
vn 0 0 1
vn 0 0 1
vn 0 0 1
vn 0 0 1
vn 0 0 1
vn 0 0 1
vn 0 1 -2.2568957298552377e-16
vn 0 1 -2.2568957298552377e-16
vn 0 1 -2.2568957298552377e-16
vn 0 1 -2.2568957298552377e-16
vn -9.550725952466274e-17 0.49613893032073975 -0.8682431578636169
vn -9.550725952466274e-17 0.49613893032073975 -0.8682431578636169
vn -9.550725952466274e-17 0.49613893032073975 -0.8682431578636169
vn -9.550725952466274e-17 0.49613893032073975 -0.8682431578636169
vn 0 1 -2.2568957298552377e-16
vn 0 1 -2.2568957298552377e-16
vn 0 1 -2.2568957298552377e-16
vn 0 1 -2.2568957298552377e-16
vn 0 0 1
vn 0 0 1
vn 0 0 1
vn 0 0 1
vn -1 0 0
vn -1 0 0
vn -1 0 0
vn -1 0 0
vn -1 0 0
vn -1 0 0
vn -1 0 0
vn -1 0 0
vn -1 0 0
vn -1 0 0
vn -1 0 0
vn -1 0 0
vn -1 0 0
vn -1 0 0
vn -1 0 0
vn -1 0 0
vn -1 0 0
vn -1 0 0
vn -1 0 0
vn -1 0 0
vn 0 -1 2.2568957298552377e-16
vn 0 -1 2.2568957298552377e-16
vn 0 -1 2.2568957298552377e-16
vn 0 -1 2.2568957298552377e-16
vn 0 -1 2.2568957298552377e-16
vn 0 -1 2.2568957298552377e-16
vn 0 -1 2.2568957298552377e-16
vn 0 -1 2.2568957298552377e-16
vn -9.550725952466274e-17 -0.49613893032073975 -0.8682431578636169
vn -9.550725952466274e-17 -0.49613893032073975 -0.8682431578636169
vn -9.550725952466274e-17 -0.49613893032073975 -0.8682431578636169
vn -9.550725952466274e-17 -0.49613893032073975 -0.8682431578636169
f 1//1 2//2 3//3
f 1//1 4//4 2//2
f 3//3 5//5 1//1
f 6//6 7//7 1//1
f 1//1 8//8 6//6
f 5//5 8//8 1//1
f 9//9 1//10 7//11
f 7//11 10//12 9//9
f 7//11 11//13 10//12
f 11//13 12//14 10//12
f 12//14 13//15 10//12
f 6//16 8//17 14//18
f 15//19 16//20 6//16
f 16//20 17//21 6//16
f 14//18 15//19 6//16
f 16//22 15//23 18//24
f 18//24 19//25 16//22
f 18//26 20//27 21//28
f 18//26 15//29 14//30
f 14//30 20//27 18//26
f 21//28 22//31 18//26
f 23//32 18//33 22//34
f 23//32 24//35 25//36
f 22//34 26//37 23//32
f 23//32 19//38 18//33
f 25//36 19//38 23//32
f 27//39 5//40 3//41
f 28//42 3//41 2//43
f 29//44 2//43 4//45
f 30//46 4//45 1//47
f 21//48 31//49 26//50
f 26//50 22//51 21//48
f 32//52 33//53 26//50
f 26//50 31//49 32//52
f 27//39 31//49 8//54
f 20//55 14//56 8//54
f 8//54 31//49 20//55
f 8//54 5//40 27//39
f 21//48 20//55 31//49
f 1//47 9//57 30//46
f 4//45 30//46 29//44
f 2//43 29//44 28//42
f 3//41 28//42 27//39
f 34//58 35//59 33//60
f 33//60 32//61 34//58
f 35//62 34//63 36//64
f 36//64 37//65 35//62
f 38//66 39//67 40//68
f 41//69 38//66 42//70
f 43//71 41//69 44//72
f 45//73 43//71 46//74
f 47//75 45//73 48//76
f 49//77 47//75 50//78
f 51//79 49//77 52//80
f 53//81 51//79 54//82
f 55//83 53//81 56//84
f 57//85 55//83 58//86
f 59//87 57//85 60//88
f 36//89 59//87 61//90
f 61//90 37//91 36//89
f 60//88 61//90 59//87
f 58//86 60//88 57//85
f 56//84 58//86 55//83
f 54//82 56//84 53//81
f 52//80 54//82 51//79
f 50//78 52//80 49//77
f 48//76 50//78 47//75
f 46//74 48//76 45//73
f 44//72 46//74 43//71
f 42//70 44//72 41//69
f 40//68 42//70 38//66
f 40//92 39//93 62//94
f 62//94 63//95 40//92
f 62//96 64//97 65//98
f 65//98 63//99 62//96
f 40//100 63//101 65//102
f 66//103 67//104 42//105
f 23//106 54//107 52//108
f 26//109 37//110 61//111
f 37//110 26//109 33//112
f 42//105 40//100 66//103
f 67//104 46//113 44//114
f 67//104 52//108 50//115
f 23//106 56//116 54//107
f 23//106 61//111 60//117
f 33//112 35//118 37//110
f 44//114 42//105 67//104
f 50//115 48//119 67//104
f 23//106 58//120 56//116
f 61//111 23//106 26//109
f 48//119 46//113 67//104
f 60//117 58//120 23//106
f 52//108 67//104 23//106
f 65//102 66//103 40//100
f 67//121 66//122 68//123
f 69//124 70//125 67//121
f 67//121 70//125 71//126
f 71//126 72//127 67//121
f 68//123 69//124 67//121
f 73//128 74//129 70//130
f 70//130 69//131 73//128
f 69//132 75//133 76//134
f 69//132 68//135 77//136
f 77//136 75//133 69//132
f 76//134 73//137 69//132
f 78//138 73//139 76//140
f 78//138 79//141 80//142
f 76//140 81//143 78//138
f 78//138 74//144 73//139
f 80//142 74//144 78//138
f 82//145 83//146 84//147
f 85//148 84//147 86//149
f 87//150 86//149 88//151
f 89//152 88//151 90//153
f 75//154 91//155 81//156
f 92//157 90//153 81//156
f 81//156 91//155 92//157
f 64//158 91//155 66//159
f 77//160 68//161 66//159
f 91//155 75//154 77//160
f 66//159 91//155 77//160
f 66//159 65//162 64//158
f 81//156 76//163 75//154
f 90//153 92//157 89//152
f 88//151 89//152 87//150
f 86//149 87//150 85//148
f 84//147 85//148 82//145
f 90//164 86//165 84//166
f 90//164 88//167 86//165
f 78//168 81//169 83//170
f 83//170 81//169 90//164
f 84//166 83//170 90//164
f 83//170 93//171 78//168
f 23//172 67//173 72//174
f 71//175 25//176 24//177
f 79//178 78//179 93//180
f 80//181 79//178 94//182
f 17//183 11//184 7//185
f 16//186 12//187 11//184
f 95//188 96//189 74//190
f 96//189 19//191 70//192
f 70//192 74//190 96//189
f 71//175 70//192 19//191
f 19//191 25//176 71//175
f 13//193 16//186 19//191
f 13//193 12//187 16//186
f 19//191 96//189 13//193
f 74//190 80//181 95//188
f 11//184 17//183 16//186
f 7//185 6//194 17//183
f 94//182 95//188 80//181
f 93//180 94//182 79//178
f 24//177 72//174 71//175
f 72//174 24//177 23//172
f 82//195 97//196 93//197
f 97//196 94//198 93//197
f 97//196 95//199 94//198
f 97//196 96//200 95//199
f 93//197 83//201 82//195
f 36//202 27//203 28//204
f 36//202 31//205 27//203
f 39//206 92//207 91//208
f 39//206 87//209 89//210
f 36//202 29//211 30//212
f 36//202 32//213 31//205
f 89//210 92//207 39//206
f 39//206 82//214 85//215
f 28//204 29//211 36//202
f 49//216 51//217 10//218
f 85//215 87//209 39//206
f 36//202 34//219 32//213
f 10//218 55//220 57//221
f 10//218 98//222 49//216
f 49//216 98//222 97//223
f 97//223 82//214 41//224
f 91//208 64//225 39//206
f 9//226 59//227 36//202
f 57//221 9//226 10//218
f 10//218 99//228 98//222
f 97//223 45//229 47//230
f 82//214 38//231 41//224
f 64//225 62//232 39//206
f 57//221 59//227 9//226
f 51//217 53//233 10//218
f 97//223 43//234 45//229
f 39//206 38//231 82//214
f 53//233 55//220 10//218
f 41//224 43//234 97//223
f 97//223 47//230 49//216
f 30//212 9//226 36//202
f 100//235 99//236 10//237
f 10//237 13//238 100//235
f 96//239 97//240 98//241
f 98//241 101//242 96//239
f 100//243 13//244 102//245
f 13//244 96//246 103//247
f 103//247 102//245 13//244
f 101//248 104//249 103//247
f 103//247 96//246 101//248
f 102//245 105//250 100//243
f 105//251 102//252 106//253
f 106//253 107//254 105//251
f 107//255 106//256 108//257
f 108//257 109//258 107//255
f 109//259 108//260 110//261
f 110//261 111//262 109//259
f 111//263 110//264 112//265
f 112//265 113//266 111//263
f 99//267 100//268 109//269
f 100//268 105//270 107//271
f 101//272 114//273 115//274
f 98//275 113//276 114//273
f 98//275 99//267 111//277
f 107//271 109//269 100//268
f 114//273 101//272 98//275
f 109//269 111//277 99//267
f 111//277 113//276 98//275
f 115//274 104//278 101//272
f 102//279 103//280 116//281
f 110//282 108//283 106//284
f 112//285 110//282 116//281
f 106//284 116//281 110//282
f 116//281 106//284 102//279
f 116//281 117//286 112//285
f 117//287 114//288 113//289
f 113//289 112//290 117//287
f 115//291 116//292 103//293
f 103//293 104//294 115//291
f 117//295 116//296 115//297
f 115//297 114//298 117//295
